<?xml version="1.0"?>
<svg xmlns="http://www.w3.org/2000/svg" height="512px" viewBox="0 0 512 512" width="512px" class=""><g><path d="m435.199219 136.535156h25.601562c23.5625 0 42.664063 19.101563 42.664063 42.664063v68.265625c0 23.566406-19.101563 42.667968-42.664063 42.667968h-25.601562c-23.5625 0-42.664063-19.101562-42.664063-42.667968v-68.265625c0-23.5625 19.101563-42.664063 42.664063-42.664063zm0 0" fill="#ffb301" data-original="#FFB301" class=""/><path d="m435.199219 136.535156c23.566406 0 42.667969 19.101563 42.667969 42.664063v68.265625c0 23.566406-19.101563 42.667968-42.667969 42.667968-23.5625 0-42.664063-19.101562-42.664063-42.667968v-68.265625c0-23.5625 19.101563-42.664063 42.664063-42.664063zm0 0" fill="#fdd834" data-original="#FDD834" class=""/><path d="m33.613281 68.265625h303.453125v264.535156h-303.453125zm0 0" fill="#283593" data-original="#283593" class="" style="fill:#777DEE" data-old_color="#767CEE"/><path d="m25.601562 68.265625h273.066407v264.535156h-273.066407zm0 0" fill="#3f51b5" data-original="#3F51B5" class="" style="fill:#A7C5FD" data-old_color="#A7C4FC"/><path d="m42.667969 328.535156h283.5v123.730469h-283.5zm0 0" fill="#35495e" data-original="#35495E" class=""/><path d="m42.667969 324.265625v-221.867187h-34.132813v341.335937c0 4.710937 3.820313 8.53125 8.53125 8.53125h25.601563v-103.59375" fill="#0377bc" data-original="#0377BC" class="" style="fill:#7AB7D4" data-old_color="#7BB7D4"/><path d="m358.398438 366.933594v76.800781c0 4.710937-3.820313 8.53125-8.53125 8.53125h-25.601563v-85.332031" fill="#0377bc" data-original="#0377BC" class="" style="fill:#7AB7D4" data-old_color="#7BB7D4"/><path d="m409.683594 366.933594h-346.195313c-3.519531-.011719-6.949219-1.113282-9.8125-3.15625l-20.824219-15.105469-12.285156-8.960937c-2.988281-2.164063-4.25-6-3.125-9.515626 1.128906-3.511718 4.382813-5.90625 8.074219-5.929687h348.925781c1.753906.003906 3.460938.570313 4.867188 1.621094l35.324218 25.601562c2.992188 2.164063 4.25 6.003907 3.125 9.515625-1.125 3.515625-4.382812 5.90625-8.074218 5.929688zm0 0" fill="#6a1b9a" data-original="#6A1B9A" class="" style="fill:#A223FB" data-old_color="#A01AFD"/><path d="m358.484375 366.933594h-294.996094c-3.519531-.011719-6.949219-1.113282-9.8125-3.15625l-20.824219-15.105469-12.285156-8.960937c-2.988281-2.164063-4.25-6-3.125-9.515626 1.128906-3.511718 4.382813-5.90625 8.074219-5.929687h297.726563c1.753906.003906 3.460937.570313 4.863281 1.621094l35.328125 25.601562c2.988281 2.164063 4.25 6.003907 3.125 9.515625-1.128906 3.515625-4.382813 5.90625-8.074219 5.929688zm0 0" fill="#9d27b0" data-original="#9D27B0" class="" style="fill:#D865E5" data-old_color="#D966E6"/><path d="m187.734375 170.667969c0 18.851562-15.28125 34.132812-34.132813 34.132812-18.851562 0-34.136718-15.28125-34.136718-34.132812 0-18.851563 15.285156-34.132813 34.136718-34.132813 18.851563 0 34.132813 15.28125 34.132813 34.132813zm0 0" fill="#fdd7ad" data-original="#FDD7AD" class=""/><path d="m153.601562 409.601562v72.53125c0 11.78125 9.550782 21.332032 21.332032 21.332032s21.332031-9.550782 21.332031-21.332032v-132.265624h-85.332031v132.265624c0 11.78125 9.550781 21.332032 21.332031 21.332032s21.335937-9.550782 21.335937-21.332032z" fill="#3b97d3" data-original="#3B97D3" class=""/><path d="m80.382812 326.910156c3.070313-2.917968 4.851563-6.941406 4.949219-11.175781v15.445313c-1.996093-.960938-3.707031-2.433594-4.949219-4.269532zm0 0" fill="#ad1457" data-original="#AD1457" class="" style="fill:#DDDDDD" data-old_color="#E0DFDF"/><path d="m197.972656 230.398438h-21.332031c-.40625-.027344-.8125.03125-1.195313.171874h-.085937c-2.207031.296876-4.203125 1.464844-5.546875 3.242188l-16.210938 21.589844-12.800781-17.066406-3.414062-4.523438c-1.625-2.132812-4.144531-3.394531-6.828125-3.414062h-21.332032c-1.023437 0-1.960937.085937-2.988281.171874h-.082031c-17.21875 1.792969-30.074219 16.667969-29.355469 33.964844v51.199219c-.070312 4.019531 1.1875 7.949219 3.582031 11.175781 3.070313-2.917968 4.851563-6.941406 4.949219-11.175781v15.445313c2.113281 1.085937 4.453125 1.640624 6.828125 1.621093 9.757813.09375 17.9375-7.34375 18.773438-17.066406v34.132813h59.734375v-34.132813c.003906 6.09375 3.261719 11.722656 8.539062 14.765625 5.28125 3.042969 11.78125 3.042969 17.058594-.003906v-14.335938c.332031 9.214844 7.847656 16.539063 17.066406 16.640625 9.414063-.027343 17.039063-7.652343 17.066407-17.066406v-51.199219c.386718-8.871094-2.847657-17.519531-8.960938-23.957031-6.117188-6.4375-14.585938-10.109375-23.464844-10.179687zm0 0" fill="#ad1457" data-original="#AD1457" class="" style="fill:#DDDDDD" data-old_color="#E0DFDF"/><path d="m175.445312 230.570312h-.085937c-2.207031.296876-4.203125 1.464844-5.546875 3.242188l-16.210938 21.589844-12.800781-17.066406-3.414062-4.523438c-1.625-2.132812-4.144531-3.394531-6.828125-3.414062h-21.332032c-1.023437 0-1.960937.085937-2.988281.171874h-.082031c-17.21875 1.792969-30.074219 16.667969-29.355469 33.964844v51.199219c-.070312 4.019531 1.1875 7.949219 3.582031 11.175781 3.070313-2.917968 4.851563-6.941406 4.949219-11.175781v15.445313c2.113281 1.085937 4.453125 1.640624 6.828125 1.621093 9.757813.09375 17.9375-7.34375 18.773438-17.066406v34.132813h85.332031v-33.707032c.105469 3.976563 1.617187 7.785156 4.269531 10.75 2.742188-3.078125 4.257813-7.054687 4.265625-11.175781v-51.199219c.71875-17.296875-12.136719-32.171875-29.355469-33.964844zm0 0" fill="#e91e63" data-original="#E91E63" class="" style="fill:#FFFFFF" data-old_color="#FDFAFB"/><path d="m200.535156 326.910156c-1.199218 1.441406-2.644531 2.65625-4.269531 3.585938v-14.335938c.105469 3.976563 1.617187 7.785156 4.269531 10.75zm0 0" fill="#e91e63" data-original="#E91E63" class="" style="fill:#FFFFFF" data-old_color="#FDFAFB"/><path d="m469.332031 102.398438h-341.332031c0-51.882813-26.710938-93.863282-59.734375-93.863282h341.335937c33.023438 0 59.730469 41.980469 59.730469 93.863282zm0 0" fill="#0377bc" data-original="#0377BC" class="" style="fill:#7AB7D4" data-old_color="#7BB7D4"/><path d="m443.734375 102.398438h-341.335937c0-51.882813-26.707032-93.863282-59.730469-93.863282h341.332031c33.023438 0 59.734375 41.980469 59.734375 93.863282zm0 0" fill="#02a9f4" data-original="#02A9F4" class="active-path" style="fill:#73D4FF" data-old_color="#74D4FF"/><path d="m128 102.398438h-119.464844c0-51.882813 26.707032-93.863282 59.730469-93.863282s59.734375 41.980469 59.734375 93.863282zm0 0" fill="#0377bc" data-original="#0377BC" class="" style="fill:#7AB7D4" data-old_color="#7BB7D4"/><path d="m324.265625 102.398438h34.132813v221.867187h-34.132813zm0 0" fill="#0377bc" data-original="#0377BC" class="" style="fill:#7AB7D4" data-old_color="#7BB7D4"/><path d="m51.5 23.999847h-2.499847" fill="none" stroke="#000" stroke-linecap="round" stroke-linejoin="round" stroke-width="2" transform="matrix(8.533333 0 0 8.533333 8.533333 8.533333)"/><path d="m426.667969 289.28125v154.453125c0 4.710937 3.820312 8.53125 8.53125 8.53125h17.066406c4.714844 0 8.535156-3.820313 8.535156-8.53125v-153.601563" fill="#a5a5a4" data-original="#A5A5A4" class=""/><path d="m153.601562 128c-23.566406 0-42.667968 19.101562-42.667968 42.667969 0 23.5625 19.101562 42.664062 42.667968 42.664062 23.5625 0 42.664063-19.101562 42.664063-42.664062-.027344-23.554688-19.113281-42.640625-42.664063-42.667969zm0 68.265625c-14.140624 0-25.601562-11.460937-25.601562-25.597656 0-14.140625 11.460938-25.601563 25.601562-25.601563 14.136719 0 25.597657 11.460938 25.597657 25.601563 0 14.136719-11.460938 25.597656-25.597657 25.597656zm0 0" data-original="#000000" class="" style="fill:#000000"/><path d="m162.132812 76.800781h76.800782c4.710937 0 8.53125-3.820312 8.53125-8.535156 0-4.710937-3.820313-8.53125-8.53125-8.53125h-76.800782c-4.710937 0-8.53125 3.820313-8.53125 8.53125 0 4.714844 3.820313 8.535156 8.53125 8.535156zm0 0" data-original="#000000" class="" style="fill:#000000"/><path d="m273.066406 76.800781h8.535156c4.710938 0 8.53125-3.820312 8.53125-8.535156 0-4.710937-3.820312-8.53125-8.53125-8.53125h-8.535156c-4.710937 0-8.53125 3.820313-8.53125 8.53125 0 4.714844 3.820313 8.535156 8.53125 8.535156zm0 0" data-original="#000000" class="" style="fill:#000000"/><path d="m296.960938 131.414062c-2.828126-3.769531-8.175782-4.535156-11.949219-1.707031l-68.265625 51.199219c-3.769532 2.828125-4.535156 8.175781-1.707032 11.945312 2.828126 3.773438 8.175782 4.535157 11.949219 1.707032l68.265625-51.199219c3.769532-2.828125 4.535156-8.175781 1.707032-11.945313zm0 0" data-original="#000000" class="" style="fill:#000000"/><path d="m285.011719 180.90625-34.132813 25.601562c-3.769531 2.828126-4.535156 8.175782-1.707031 11.945313s8.179687 4.535156 11.949219 1.707031l34.132812-25.601562c3.769532-2.828125 4.535156-8.175782 1.707032-11.945313-2.828126-3.769531-8.175782-4.535156-11.949219-1.707031zm0 0" data-original="#000000" class="" style="fill:#000000"/><path d="m477.867188 192c0-16.496094-13.371094-29.867188-29.867188-29.867188h-12.800781c-9.425781 0-17.066407 7.640626-17.066407 17.066407v68.265625c0 9.425781 7.640626 17.070312 17.066407 17.070312h12.800781c12.144531.015625 23.085938-7.335937 27.664062-18.582031 4.578126-11.25 1.878907-24.152344-6.824218-32.621094 5.769531-5.597656 9.023437-13.292969 9.027344-21.332031zm-17.066407 42.667969c0 7.066406-5.730469 12.796875-12.800781 12.796875h-12.800781v-25.597656h12.800781c7.070312 0 12.800781 5.730468 12.800781 12.800781zm-25.601562-29.867188v-25.601562h12.800781c7.070312 0 12.800781 5.730469 12.800781 12.800781s-5.730469 12.800781-12.800781 12.800781zm0 0" data-original="#000000" class="" style="fill:#000000"/><path d="m460.800781 128h-25.601562c-28.265625.027344-51.171875 22.933594-51.199219 51.199219v68.265625c.023438 21.679687 13.695312 40.988281 34.132812 48.214844v54.671874l-46.242187-33.03125c-1.445313-1.03125-3.179687-1.585937-4.957031-1.585937v-204.800781h102.398437c4.714844 0 8.535157-3.820313 8.535157-8.535156 0-57.417969-29.988282-102.398438-68.265626-102.398438h-341.335937c-38.28125 0-68.265625 44.980469-68.265625 102.398438v341.335937c0 9.425781 7.640625 17.066406 17.066406 17.066406h85.332032v21.332031c.011718 12.132813 7.355468 23.054688 18.589843 27.632813 11.234375 4.582031 24.121094 1.914063 32.613281-6.75 8.488282 8.664063 21.378907 11.332031 32.609376 6.75 11.234374-4.578125 18.582031-15.5 18.589843-27.632813v-21.332031h145.066407c9.425781 0 17.066406-7.640625 17.066406-17.066406v-68.269531h51.199218v68.269531c0 9.425781 7.640626 17.066406 17.066407 17.066406h17.066406c9.425781 0 17.066406-7.640625 17.066406-17.066406v-145.835937c24.605469-4.179688 42.621094-25.476563 42.667969-50.433594v-68.265625c-.027344-28.265625-22.933594-51.171875-51.199219-51.199219zm-110.933593 187.734375h-17.066407v-204.800781h17.066407zm-110.933594 0v-51.199219c.34375-11.125-3.804688-21.917968-11.511719-29.945312s-18.320313-12.613282-29.449219-12.722656h-21.332031c-5.367187.019531-10.417969 2.546874-13.652344 6.824218l-9.386719 12.503906-9.386718-12.503906c-3.234375-4.28125-8.285156-6.808594-13.65625-6.824218h-21.332032c-11.128906.109374-21.742187 4.695312-29.449218 12.722656-7.707032 8.027344-11.855469 18.820312-11.511719 29.945312v51.199219h-17.066406v-204.800781h264.535156v204.800781zm-34.132813 0v-51.199219c0-4.714844-3.820312-8.535156-8.535156-8.535156-4.710937 0-8.53125 3.820312-8.53125 8.535156v76.796875h-68.269531v-76.796875c0-4.714844-3.820313-8.535156-8.53125-8.535156-4.714844 0-8.535156 3.820312-8.535156 8.535156v51.199219c-.867188 4.964844-5.199219 8.574219-10.238282 8.53125-2.332031.070313-4.492187-1.226563-5.53125-3.320313-.855468-1.601562-1.300781-3.394531-1.296875-5.210937v-51.199219c-.367187-6.601562 1.976563-13.066406 6.484375-17.898437 4.511719-4.832031 10.800782-7.617188 17.410156-7.703125h21.332032l16.214844 21.597656c.28125.289062.585937.554688.90625.800781.238281.320313.503906.621094.792968.898438.144532.101562.316406.117187.460938.210937.5.308594 1.03125.5625 1.585937.761719.472657.207031.960938.375 1.460938.503906.539062.078125 1.089843.105469 1.636719.082031.535156.023438 1.066406-.003906 1.59375-.082031.511718-.121093 1.003906-.292969 1.476562-.511719.558594-.191406 1.089844-.445312 1.589844-.753906.144531-.09375.304687-.109375.453125-.210937.285156-.28125.550781-.578125.792969-.898438.316406-.246093.621093-.511719.902343-.800781l16.214844-21.597656h21.332031c6.609375.085937 12.898438 2.871094 17.410156 7.703125 4.507813 4.832031 6.851563 11.296875 6.484376 17.898437v51.199219c0 4.710937-3.820313 8.53125-8.535157 8.53125-4.710937 0-8.53125-3.820313-8.53125-8.53125zm-187.734375-204.800781h17.066406v204.800781h-17.066406zm18.074219 221.867187h39.046875c4.378906 5.433594 10.996094 8.574219 17.972656 8.53125 3.511719-.007812 6.988282-.699219 10.238282-2.03125v19.097657h-28.660157c-1.78125.007812-3.515625-.546876-4.960937-1.585938zm374.460937-315.734375c26.023438 0 48.261719 34.371094 50.933594 76.800782h-324.265625c-.355469-28.351563-10.929687-55.621094-29.773437-76.800782zm-341.335937 0c26.027344 0 48.265625 34.371094 50.9375 76.800782h-101.871094c2.671875-42.429688 24.90625-76.800782 50.933594-76.800782zm-42.664063 426.667969h-8.535156v-102.878906l17.066406 12.1875v90.691406zm25.597657 0v-78.507813l7.679687 5.46875c4.332032 3.105469 9.527344 4.773438 14.859375 4.769532h28.660157v68.269531zm136.535156 38.398437c0 7.070313-5.730469 12.800782-12.800781 12.800782-7.070313 0-12.800782-5.730469-12.800782-12.800782v-72.53125c0-4.714843-3.820312-8.535156-8.53125-8.535156-4.714843 0-8.535156 3.820313-8.535156 8.535156v72.53125c0 7.070313-5.730468 12.800782-12.800781 12.800782-7.066406 0-12.800781-5.730469-12.800781-12.800782v-123.734374h68.269531zm17.066406-106.667968h110.933594v68.269531h-110.933594zm145.066407 68.269531h-17.066407v-68.269531h17.066407zm-145.066407-85.335937v-18.636719c9.714844 3.625 20.660157.851562 27.476563-6.960938h131.925781l35.839844 25.597657zm230.398438 85.335937v-145.066406h17.066406v145.066406zm59.734375-196.269531c0 18.851562-15.28125 34.136718-34.132813 34.136718h-25.601562c-18.851563 0-34.132813-15.285156-34.132813-34.136718v-68.265625c0-18.851563 15.28125-34.132813 34.132813-34.132813h25.601562c18.851563 0 34.132813 15.28125 34.132813 34.132813zm0 0" data-original="#000000" class="" style="fill:#000000"/></g> </svg>
